HIERARCHY
ROOT Hips
{
	OFFSET -3.958830 18.904000 13.208200
	CHANNELS 6 Xposition Yposition Zposition Zrotation Yrotation Xrotation 
	JOINT LHipJoint
	{
		OFFSET 0.000000 0.000000 0.000000
		CHANNELS 3 Zrotation Yrotation Xrotation
		JOINT LeftUpLeg
		{
			OFFSET 1.800000 -1.400000 0.085000
			CHANNELS 3 Zrotation Yrotation Xrotation
			JOINT LeftLeg
			{
				OFFSET 2.215000 -6.000000 0.000000
				CHANNELS 3 Zrotation Yrotation Xrotation
				JOINT LeftFoot
				{
					OFFSET 2.500000 -6.900000 0.000000
					CHANNELS 3 Zrotation Yrotation Xrotation
					JOINT LeftToeBase
					{
						OFFSET 0.200000 -0.500000 1.950000
						CHANNELS 3 Zrotation Yrotation Xrotation
						End Site
						{
							OFFSET 0.000000 0.000000 0.000000
						}
					}
				}
			}
		}
	}
	JOINT RHipJoint
	{
		OFFSET 0.000000 0.000000 0.000000
		CHANNELS 3 Zrotation Yrotation Xrotation
		JOINT RightUpLeg
		{
			OFFSET -1.800000 -1.400000 0.085000
			CHANNELS 3 Zrotation Yrotation Xrotation
			JOINT RightLeg
			{
				OFFSET -2.215000 -6.000000 0.000000
				CHANNELS 3 Zrotation Yrotation Xrotation
				JOINT RightFoot
				{
					OFFSET -2.500000 -6.900000 0.000000
					CHANNELS 3 Zrotation Yrotation Xrotation
					JOINT RightToeBase
					{
						OFFSET -0.200000 -0.500000 1.950000
						CHANNELS 3 Zrotation Yrotation Xrotation
						End Site
						{
							OFFSET 0.000000 0.000000 0.000000
						}
					}
				}
			}
		}
	}
	JOINT LowerBack
	{
		OFFSET 0.000000 0.000000 0.000000
		CHANNELS 3 Zrotation Yrotation Xrotation
		JOINT Spine
		{
			OFFSET -0.087000 1.940000 -0.288900
			CHANNELS 3 Zrotation Yrotation Xrotation
			JOINT Spine1
			{
				OFFSET 0.000000 1.950000 0.060000
				CHANNELS 3 Zrotation Yrotation Xrotation
				JOINT Neck
				{
					OFFSET 0.000000 0.000000 0.000000
					CHANNELS 3 Zrotation Yrotation Xrotation
					JOINT Neck1
					{
						OFFSET 0.000000 1.600000 0.340000
						CHANNELS 3 Zrotation Yrotation Xrotation
						JOINT Head
						{
							OFFSET 0.000000 1.667000 -0.240000
							CHANNELS 3 Zrotation Yrotation Xrotation
							End Site
							{
								OFFSET 0.000000 0.000000 0.000000
							}
						}
					}
				}
				JOINT LeftShoulder
				{
					OFFSET 0.000000 0.000000 0.000000
					CHANNELS 3 Zrotation Yrotation Xrotation
					JOINT LeftArm
					{
						OFFSET 2.700000 1.550000 -0.730000
						CHANNELS 3 Zrotation Yrotation Xrotation
						JOINT LeftForeArm
						{
							OFFSET 5.450000 0.000000 0.000000
							CHANNELS 3 Zrotation Yrotation Xrotation
							JOINT LeftHand
							{
								OFFSET 3.450000 0.000000 0.000000
								CHANNELS 3 Zrotation Yrotation Xrotation
								JOINT LeftHandIndex1
								{
									OFFSET 0.750000 0.000000 0.000000
									CHANNELS 3 Zrotation Yrotation Xrotation
									End Site
									{
										OFFSET 0.000000 0.000000 0.000000
									}
								}
							}
						}
					}
				}
				JOINT RightShoulder
				{
					OFFSET 0.000000 0.000000 0.000000
					CHANNELS 3 Zrotation Yrotation Xrotation
					JOINT RightArm
					{
						OFFSET -2.700000 1.550000 -0.730000
						CHANNELS 3 Zrotation Yrotation Xrotation
						JOINT RightForeArm
						{
							OFFSET -5.450000 0.000000 0.000000
							CHANNELS 3 Zrotation Yrotation Xrotation
							JOINT RightHand
							{
								OFFSET -3.450000 0.000000 0.000000
								CHANNELS 3 Zrotation Yrotation Xrotation
								JOINT RightHandIndex1
								{
									OFFSET -0.750000 0.000000 0.000000
									CHANNELS 3 Zrotation Yrotation Xrotation
									End Site
									{
										OFFSET 0.000000 0.000000 0.000000
									}
								}
							}
						}
					}
				}
			}
		}
	}
}
MOTION
Frames: 13
Frame Time: 0.016667
-0.068550 16.975760 -10.180240 -6.175552 -15.948106 1.734586 -15.639269 13.247199 3.878333 4.868661 -4.194546 -36.534975 2.133592 4.767062 25.952823 -0.384143 3.910667 3.145500 0.389660 0.043620 0.349310 17.808418 -10.114820 3.095401 2.690354 1.906734 -10.796198 14.792820 -7.067427 16.131904 -0.397613 -3.903208 3.149248 -0.042220 0.142400 0.183200 -2.002784 -3.157979 -8.190946 0.465574 7.477300 19.038102 12.044123 9.268527 -3.083084 -0.512057 -2.919738 -6.000359 -9.475350 3.079769 41.287581 0.684650 1.049660 -5.343060 -29.341810 -0.457352 -0.937878 -55.259228 -2.020877 -9.202819 -3.993661 -25.749689 -1.974996 -3.653641 2.910019 0.487620 0.027660 -0.005660 0.162320 31.912154 7.655027 4.795842 41.172621 -4.226383 -6.214302 3.245584 6.349550 -0.437627 2.391672 -1.254904 -0.096700 0.075900 -0.095900 -0.182380 
-0.067390 16.976600 -10.182420 -5.762469 -15.675550 1.343958 -15.655447 13.376123 3.820460 4.494607 -4.130400 -35.447510 1.738017 4.698405 24.817155 -0.405196 3.742542 3.201612 0.412340 0.067780 0.360820 17.769340 -10.100225 3.097455 2.170439 1.941637 -10.756561 15.154066 -7.205662 16.365058 -0.421823 -3.935603 3.128005 -0.034830 0.125710 0.184530 -1.914410 -3.387398 -8.178497 -0.117117 7.342123 19.499212 12.441912 9.161844 -3.198322 -0.728953 -3.544405 -5.999284 -11.078521 3.598665 42.151840 1.441660 0.650110 -6.243960 -29.419160 -0.172113 -1.109006 -55.136531 -2.413139 -9.104101 -3.204054 -26.125004 -2.149747 -3.628452 2.906475 0.508440 0.002030 0.014250 0.161350 32.490034 7.834661 4.914107 40.213611 -4.047411 -5.928240 2.948149 5.573450 -0.393245 2.402430 -1.231847 -0.085420 0.080810 -0.098880 -0.180680 
-0.058340 16.980080 -10.177490 -5.993938 -15.495903 0.756070 -15.628943 13.554051 3.726116 4.382340 -3.852150 -34.051771 1.946884 4.451872 23.685675 -0.443708 3.555295 3.252178 0.441520 0.091590 0.380610 17.756389 -10.115805 3.156916 2.105500 1.926457 -10.262004 15.584139 -7.377256 16.510542 -0.468669 -3.975097 3.100660 -0.027800 0.086690 0.182020 -1.919283 -3.600084 -8.229197 0.714762 6.930390 20.640418 12.246201 9.186298 -3.631486 -0.820357 -4.395863 -6.247618 -13.543011 4.568080 44.533469 2.531260 0.162610 -7.426220 -29.654064 0.217663 -1.407675 -54.820386 -2.933571 -8.976632 -1.872914 -27.077918 -2.459995 -3.580392 2.886654 0.561890 -0.046310 0.051900 0.153490 32.840560 8.074522 5.186411 39.403740 -3.975357 -5.621637 2.263604 4.499715 -0.293890 2.418954 -1.184680 -0.078690 0.086710 -0.098740 -0.190900 
-0.060110 16.983070 -10.176380 -5.683115 -15.418387 0.099994 -15.642719 13.700819 3.653503 3.964016 -3.738931 -32.776181 2.031745 4.329219 23.049801 -0.482378 3.459366 3.283884 0.450330 0.097170 0.406080 17.717885 -10.117841 3.156229 1.610131 2.013585 -10.198972 15.851534 -7.657502 17.395089 -0.504284 -4.043480 3.069404 -0.024010 0.062670 0.163930 -1.830407 -3.814855 -8.215067 0.238812 6.998890 21.288331 12.751784 9.303488 -3.404851 -0.990186 -4.711164 -6.532168 -15.063974 5.159675 47.009900 2.890800 -0.035400 -8.452540 -29.171763 0.150571 -1.417975 -54.802758 -3.963232 -8.798772 -0.206325 -28.223137 -2.901721 -3.549394 2.826149 0.612790 -0.079810 0.080890 0.137590 32.782206 8.451099 5.430276 39.422499 -3.704910 -5.569163 0.949069 3.978287 -0.213261 2.430829 -1.127092 -0.093990 0.120380 -0.092070 -0.208780 
-0.053870 16.979230 -10.168510 -5.595441 -14.927688 -0.302883 -15.615418 13.787343 3.599888 3.494956 -3.709028 -31.695346 2.333106 4.103722 22.358181 -0.525428 3.333028 3.337957 0.456330 0.106260 0.422800 17.721683 -10.145973 3.177509 1.182236 1.969432 -10.000893 16.358992 -7.876546 17.530296 -0.537940 -4.083668 3.057546 -0.014690 0.049840 0.133330 -1.875351 -3.895513 -8.217266 0.614120 6.605160 21.800532 12.448306 9.095251 -3.447760 -1.157345 -4.956679 -6.685390 -16.481408 5.992832 49.540040 3.460780 -0.080290 -9.232080 -28.473495 0.539448 -1.554604 -54.603392 -5.152251 -8.471489 1.821868 -29.665164 -3.429136 -3.517027 2.753657 0.661930 -0.109550 0.104520 0.132450 32.325358 8.128492 5.331320 40.277018 -3.374156 -5.868415 -0.441212 4.520920 -0.208325 2.430154 -1.081159 -0.120390 0.167700 -0.090770 -0.223100 
-0.033350 16.968640 -10.158750 -5.744311 -14.237493 -0.705937 -15.537936 13.812663 3.582491 3.323633 -3.730383 -30.896778 2.123318 4.017895 21.859626 -0.566455 3.265402 3.358548 0.471330 0.121650 0.449040 17.777425 -10.206544 3.198481 0.939858 1.846794 -9.643392 16.582704 -8.056614 17.625816 -0.576002 -4.114752 3.037560 -0.003170 0.026770 0.119700 -2.076102 -3.841331 -8.233435 2.214490 5.804396 22.453831 11.061078 8.612238 -3.295194 -1.112780 -5.124776 -6.870191 -17.804024 6.894388 52.204023 3.731910 0.012230 -10.114950 -27.641976 0.862187 -1.795528 -54.371338 -6.843931 -8.011768 4.792857 -31.014026 -4.251757 -3.492579 2.691124 0.709230 -0.138890 0.135530 0.121920 31.061276 7.583331 5.107896 42.117741 -2.946172 -6.522763 -1.273439 6.266957 -0.306103 2.411415 -1.052321 -0.134140 0.198970 -0.087980 -0.239550 
-0.013210 16.972080 -10.140950 -5.480504 -13.602622 -1.382875 -15.444908 13.814463 3.537331 2.896730 -3.726036 -29.556975 1.565335 3.985502 21.131315 -0.591671 3.161885 3.383208 0.519030 0.175940 0.490360 17.847448 -10.311178 3.204129 0.246185 1.596695 -8.938833 16.895812 -8.222154 17.398784 -0.630844 -4.167304 3.003765 0.021600 -0.018860 0.117590 -2.318504 -3.676989 -8.203749 3.611648 5.164401 22.904429 9.171287 8.125760 -2.806948 -1.002585 -5.151965 -7.191126 -19.026122 7.927826 55.488952 4.500710 -0.014050 -10.939340 -26.679940 0.933874 -1.935860 -53.713589 -8.584021 -7.634668 8.238019 -32.346683 -5.278939 -3.448547 2.661136 0.750750 -0.179160 0.182600 0.119380 29.505528 7.086483 4.987171 44.570390 -2.888335 -7.601664 -1.404086 9.426683 -0.525580 2.375370 -1.052202 -0.120610 0.205790 -0.107170 -0.250200 
0.021350 16.984910 -10.116250 -5.661622 -13.313501 -2.006346 -15.267018 13.763944 3.461830 3.015862 -3.537335 -28.066820 0.728865 4.037464 20.280108 -0.612541 3.079999 3.401465 0.558410 0.225500 0.525330 17.998827 -10.501756 3.225849 -0.104575 1.391398 -8.290458 16.744265 -8.374506 17.585609 -0.687830 -4.221797 2.977685 0.037880 -0.060800 0.115520 -2.794998 -3.247023 -8.152742 6.607317 4.092080 23.512465 5.581098 7.393373 -2.671482 -0.560697 -5.055599 -7.544055 -19.822175 9.105290 59.118195 5.068480 0.237340 -11.649630 -25.676044 1.360863 -2.195421 -52.066895 -9.726863 -7.446307 11.200947 -34.356433 -6.224127 -3.409325 2.624056 0.792710 -0.214870 0.231030 0.116500 26.999998 5.789169 4.740976 48.273754 -3.300481 -9.618303 0.428413 15.398642 -0.803648 2.304269 -1.042456 -0.106080 0.215340 -0.122820 -0.259570 
0.062900 16.996040 -10.081290 -5.643677 -13.028931 -2.546417 -15.080439 13.661227 3.379495 3.018614 -3.389620 -26.434923 -0.296614 4.107294 19.174074 -0.625958 3.003294 3.429178 0.573430 0.240350 0.550950 18.170490 -10.705553 3.220391 -0.788143 1.168419 -7.785646 16.698457 -8.585025 17.788232 -0.731553 -4.303464 2.939678 0.038210 -0.091690 0.112940 -3.319362 -2.728012 -8.057150 9.730122 2.869473 23.697554 1.283619 6.289145 -2.057448 0.129543 -4.982876 -8.048972 -20.391614 10.110892 61.571689 5.181950 0.553450 -11.655920 -23.718441 1.904441 -2.312093 -50.477372 -10.644120 -7.367951 13.944447 -36.714664 -7.210914 -3.377062 2.600710 0.821160 -0.240140 0.262510 0.108550 23.093427 3.977165 4.821177 52.684395 -4.517642 -12.785614 6.758475 24.658202 -0.435765 2.228063 -1.058709 -0.099720 0.217150 -0.130610 -0.269170 
0.109910 17.003070 -10.045540 -5.980341 -12.879072 -3.128954 -14.885523 13.534524 3.254738 3.568500 -3.085243 -24.705346 -1.547535 4.258057 17.985384 -0.609515 2.973914 3.439820 0.592890 0.266870 0.564040 18.368520 -10.892059 3.208347 -1.063192 0.929010 -7.161622 16.493364 -8.745662 17.983308 -0.774377 -4.388681 2.904118 0.038900 -0.113890 0.119800 -3.900921 -2.185137 -7.901085 13.877064 1.227210 23.862017 -3.486531 4.843344 -0.888188 0.954109 -5.425674 -8.569120 -22.082980 11.697306 62.236614 5.280690 0.874730 -11.705100 -21.328122 2.897520 -2.578876 -49.215023 -11.557850 -7.236658 16.820586 -38.643506 -8.255696 -3.348921 2.606862 0.824860 -0.259570 0.287560 0.109590 18.491771 1.793522 5.283063 55.897992 -6.161158 -15.626548 19.321633 34.627286 2.264754 2.198261 -1.178531 -0.075030 0.207010 -0.143340 -0.260590 
0.156890 17.012240 -10.018790 -6.352981 -12.685849 -3.666376 -14.699824 13.324398 3.104583 4.305366 -2.765599 -22.940843 -2.958688 4.447888 16.754948 -0.573477 2.993852 3.445648 0.618020 0.311910 0.549250 18.579518 -11.091568 3.170833 -1.256166 0.715024 -6.739657 16.148724 -8.872880 18.280766 -0.807167 -4.499671 2.868258 0.052800 -0.099360 0.138450 -4.500893 -1.484491 -7.673484 18.401198 -0.624656 23.491292 -8.323675 3.171654 1.375551 1.658180 -6.285198 -8.877406 -24.269856 13.258988 60.731580 5.143710 0.927990 -11.576420 -19.071606 3.582324 -2.851820 -47.316668 -12.527272 -7.149852 19.434405 -40.241662 -9.238896 -3.341893 2.645294 0.789310 -0.252760 0.291260 0.134920 14.363512 0.152086 5.979048 56.767277 -7.654621 -16.304432 37.619966 42.546937 8.604804 2.194919 -1.420612 -0.038740 0.202300 -0.156320 -0.224600 
0.205970 17.012890 -9.990590 -6.315271 -12.588973 -3.770506 -14.568223 13.087375 2.990043 4.505236 -2.625882 -21.573760 -4.071222 4.562983 15.680491 -0.526312 3.003778 3.469302 0.623900 0.347910 0.497780 18.745326 -11.257681 3.103786 -1.903474 0.647794 -7.085355 16.155773 -9.085361 18.794205 -0.804099 -4.635747 2.832980 0.071460 -0.046510 0.143970 -4.964732 -0.814651 -7.438867 22.019254 -2.389076 22.390362 -12.451028 1.432350 3.572726 2.081184 -7.600612 -8.950332 -26.753426 14.853885 56.929902 5.098490 0.931310 -10.740160 -16.398523 4.875149 -2.932289 -46.096354 -12.638126 -7.162765 22.018946 -42.033857 -10.291751 -3.350791 2.706433 0.714170 -0.220750 0.256840 0.172120 10.634067 -1.433922 6.441861 54.693594 -8.742844 -14.104539 60.052452 46.714657 18.620514 2.203264 -1.699393 -0.012280 0.206260 -0.162470 -0.170580 
0.261900 17.029630 -9.956380 -6.049350 -12.537599 -3.708198 -14.458868 12.823987 2.896996 4.416537 -2.594061 -20.323115 -5.022048 4.617204 14.737639 -0.510044 3.025421 3.483128 0.660870 0.394430 0.479720 18.888191 -11.444431 3.031429 -2.707429 0.567144 -7.540956 15.924067 -9.139257 18.964062 -0.799398 -4.723174 2.792425 0.108790 -0.007790 0.170220 -5.362826 -0.067253 -7.217741 25.360275 -3.802773 20.750432 -16.417594 -0.000413 5.385710 2.446584 -8.649265 -8.713701 -28.280464 16.147179 53.888188 5.015150 0.969810 -10.232790 -14.341585 6.141026 -3.108238 -44.568523 -12.555290 -6.961537 24.999661 -42.770403 -11.276785 -3.368201 2.778427 0.661110 -0.192880 0.232500 0.210980 7.754035 -2.971133 6.661074 50.774065 -9.435071 -10.589522 81.851834 47.249793 29.799141 2.173924 -1.959022 0.010710 0.197680 -0.176100 -0.134540 
